<?xml version="1.0" encoding="utf-8"?>
<!-- Generator: Adobe Illustrator 16.0.0, SVG Export Plug-In . SVG Version: 6.00 Build 0)  -->
<!DOCTYPE svg PUBLIC "-//W3C//DTD SVG 1.1//EN" "http://www.w3.org/Graphics/SVG/1.1/DTD/svg11.dtd">
<svg version="1.1" xmlns="http://www.w3.org/2000/svg" xmlns:xlink="http://www.w3.org/1999/xlink" x="0px" y="0px" width="360px"
	 height="360px" viewBox="-136.375 -130 360 360" enable-background="new -136.375 -130 360 360" xml:space="preserve">
<g id="Layer_2">
	<path fill="#6ED9B1" d="M215.625,50c0,94.992-77.004,171.999-172.001,171.999c-94.993,0-172-77.007-172-171.999
		c0-94.993,77.006-172,172-172C138.621-122,215.625-44.993,215.625,50z"/>
	<g>
		<g id="XMLID_3_">
			<g>
				<path fill="#44AC86" d="M-15.735,167.69c-4.67-1.91-7.97-6.46-8.05-11.801h-0.01V96.21c-21.55-16.94-35.39-43.27-35.39-72.82
					c0-51.15,41.45-92.61,92.56-92.61c20.69,0,40.58,7.64,56.41,19.56l24.26,26.76c3.771,6.39,6.55,13.12,8.14,19.97
					c1.83,7.73,3.82,27.91,3.82,27.91l19.351,48.71c0.369,0.88,0.56,1.869,0.56,2.909c0,4.11-3.37,7.46-7.49,7.46h-12.41v25.881
					c0,10.21-4.199,19.34-14.409,20.75c-8.811,1.22-36.61-0.051-36.61-4.03c0,0.01,0,15.91,0,29.439
					c-0.21,6.971-5.92,12.551-12.95,12.551h-72.87C-12.565,168.65-14.225,168.31-15.735,167.69z"/>
				<path fill="#44AC86" d="M211.455,84.5l0.68,0.17c-15.56,75.99-81.229,133.74-160.99,137.16l-66.879-54.14
					c1.51,0.619,3.17,0.96,4.91,0.96h72.87c7.03,0,12.74-5.58,12.95-12.551c0-13.529,0-29.43,0-29.439c0,3.979,27.8,5.25,36.61,4.03
					c10.21-1.41,14.409-10.54,14.409-20.75V84.06h12.41c4.12,0,7.49-3.35,7.49-7.46c0-1.04-0.19-2.029-0.56-2.909l-19.351-48.71
					c0,0-1.99-20.18-3.82-27.91c-1.59-6.85-4.369-13.58-8.14-19.97L211.455,84.5z"/>
				<path fill="#44AC86" d="M89.785-49.66c9.979,7.51,18.34,16.71,24.26,26.76L89.785-49.66z"/>
			</g>
			<g>
			</g>
		</g>
	</g>
</g>
<g id="Layer_3">
</g>
<g id="Layer_1">
	<g>
		<path fill="#FFFFFF" d="M32.029,70.088c2.71,0,5.805-1.549,5.805-3.874H26.216C26.216,68.539,29.315,70.088,32.029,70.088z"/>
		<path fill="#FFFFFF" d="M-7.007-29.406c-3.016-3.396-6.742-0.088-3.726,3.312C-10.021-25.298,8.083-4.911,8.083-4.911l3.726-3.308
			C11.809-8.219-6.295-28.607-7.007-29.406z"/>
		<path fill="#FFFFFF" d="M39.772,61.434H24.278c-0.642,0-1.162,0.52-1.162,1.166v0.772c0,0.639,0.52,1.158,1.162,1.158h15.495
			c0.644,0,1.162-0.522,1.162-1.158V62.6C40.934,61.953,40.417,61.434,39.772,61.434z"/>
		<path fill="#FFFFFF" d="M34.704-42.974c0-4.546-4.984-4.546-4.984,0c0,1.068,0,28.334,0,28.334h4.984
			C34.704-14.642,34.704-41.908,34.704-42.974z"/>
		<path fill="#FFFFFF" d="M-30.706,12.318c1.053,0.164,28.002,4.317,28.002,4.317l0.757-4.925c0,0-26.947-4.155-28.002-4.317
			C-34.444,6.701-35.199,11.625-30.706,12.318z"/>
		<path fill="#FFFFFF" d="M94.439,7.983c-1.055,0.162-28.004,4.32-28.004,4.32l0.762,4.924c0,0,26.949-4.154,28.004-4.317
			C99.689,12.217,98.932,7.292,94.439,7.983z"/>
		<path fill="#FFFFFF" d="M39.772,56.786H24.278c-0.642,0-1.162,0.521-1.162,1.161v0.772c0,0.645,0.52,1.163,1.162,1.163h15.495
			c0.644,0,1.162-0.521,1.162-1.163v-0.772C40.934,57.307,40.417,56.786,39.772,56.786z"/>
		<path fill="#FFFFFF" d="M71.499-29.406C70.79-28.607,52.685-8.219,52.685-8.219l3.724,3.308c0,0,18.108-20.387,18.812-21.184
			C78.242-29.495,74.517-32.804,71.499-29.406z"/>
		<path fill="#FFFFFF" d="M145.353,73.693l-19.345-48.715c0,0-1.994-20.179-3.82-27.904c-8.056-34.759-46.802-66.298-88.815-66.298
			c-51.111,0-92.559,41.462-92.559,92.614c0,29.545,13.839,55.877,35.387,72.825v59.679h0.011
			c0.102,7.063,5.861,12.756,12.963,12.756h72.871c7.027,0,12.736-5.583,12.947-12.55c0-13.527,0-29.435,0-29.437
			c0,3.974,27.806,5.243,36.607,4.03c10.219-1.411,14.41-10.548,14.41-20.75V84.057h12.413c4.121,0,7.489-3.347,7.489-7.461
			C145.913,75.556,145.724,74.572,145.353,73.693z M84.356,23.962c-0.286,4.442-1.042,8.913-2.427,13.238l13.523,15.17
			c-1.566,3.108-3.245,6.21-5.275,9.134l-20.025-4.463c-3.131,3.34-6.572,6.26-10.368,8.738L60.36,86.12
			c-3.239,1.459-6.501,2.632-9.891,3.559L38.076,73.471c-4.442,0.525-8.989,0.522-13.505-0.055L12.033,89.3
			c-3.403-0.945-6.694-2.167-9.884-3.696l0.889-20.1c-1.968-1.303-3.926-2.685-5.783-4.269c-1.714-1.456-3.275-3.026-4.74-4.665
			l-19.598,4.06c-1.979-2.945-3.723-6.005-5.222-9.169l13.443-14.655c-1.425-4.504-2.215-9.179-2.395-13.871l-17.463-9.448
			c0.342-3.446,1.041-6.913,1.941-10.329l19.495-2.559c1.786-4.301,4.234-8.424,7.246-12.266l-7.326-18.375
			c2.576-2.474,5.335-4.654,8.18-6.67L7.397-26.131c4.269-2.195,8.782-3.745,13.414-4.698l6.204-18.8
			c3.511-0.232,7.042-0.181,10.56,0.106l5.969,18.952c4.507,1.039,8.911,2.667,13.101,4.922l16.945-10.47
			c1.428,1.034,2.836,2.058,4.202,3.22c1.361,1.162,2.601,2.402,3.852,3.643l-7.719,18.552c2.813,3.74,5.059,7.754,6.737,11.954
			l19.967,2.91c0.86,3.435,1.486,6.925,1.806,10.411L84.356,23.962z"/>
		<path fill="#FFFFFF" d="M32.029-2.862c-11.978,0-21.685,9.709-21.685,21.685c0,3.938,1.106,7.605,2.888,10.82
			c5.329,9.593,6.737,14.979,7.606,20.189c0.728,4.372,1.738,5.384,5.04,5.384c1.398,0,3.701,0,6.151,0c2.442,0,4.74,0,6.141,0
			c3.303,0,4.312-1.012,5.042-5.384c0.867-5.21,2.279-10.596,7.603-20.189c1.782-3.217,2.894-6.881,2.894-10.82
			C53.708,6.847,44.001-2.862,32.029-2.862z"/>
	</g>
</g>
</svg>
