<?xml version="1.0" encoding="utf-8"?>
<!-- Generator: Adobe Illustrator 16.0.0, SVG Export Plug-In . SVG Version: 6.00 Build 0)  -->
<!DOCTYPE svg PUBLIC "-//W3C//DTD SVG 1.1//EN" "http://www.w3.org/Graphics/SVG/1.1/DTD/svg11.dtd">
<svg version="1.1" xmlns="http://www.w3.org/2000/svg" xmlns:xlink="http://www.w3.org/1999/xlink" x="0px" y="0px" width="360px"
	 height="360px" viewBox="-130 -130 360 360" enable-background="new -130 -130 360 360" xml:space="preserve">
<g id="Layer_2">
	<path fill="#6ED9B1" d="M222,50c0,94.992-77.004,171.999-172.001,171.999c-94.993,0-172-77.007-172-171.999
		c0-94.993,77.006-172,172-172C144.996-122,222-44.993,222,50z"/>
	<g>
		<g id="XMLID_1_">
			<g>
				<path fill="#44AC86" d="M212,108.001c-19.833,55.167-72.666,105.5-144.85,113.149L-59.5,118.418
					c1.45,0.56,48.333-11.585,48.333-11.585c7.03,0,84.181,46.34,88.667,41c7-8.333,10.666-13.323,10.666-13.333
					c0,3.979,37.834,8.71,37.834-1.5L73.5,81c0,0,32.5,0,29-17.5C99.571,48.855,129.12,27.33,117,16L212,108.001z"/>
			</g>
			<g>
			</g>
		</g>
	</g>
</g>
<g id="Layer_3" display="none">
	<g display="inline">
		<g id="XMLID_2_">
			<g>
				<path fill="#44AC86" d="M221.17,57.17l0.68,0.03c-3.54,85.92-70.1,155.58-154.699,163.95l-76.28-53.37
					c1.45,0.56,3.03,0.87,4.68,0.87h72.87c7.03,0,12.74-5.58,12.95-12.551c0-13.529,0-29.43,0-29.439c0,3.979,27.8,5.25,36.61,4.03
					c10.21-1.41,14.409-10.54,14.409-20.75V84.06h12.41c4.12,0,7.49-3.35,7.49-7.46c0-1.04-0.19-2.029-0.56-2.909L132.38,24.98
					c0,0-1.99-20.18-3.82-27.91C125.19-17.48,116.44-31.47,104.32-42.8L221.17,57.17z"/>
				<path fill="#44AC86" d="M-9.13,167.78c-4.79-1.851-8.2-6.46-8.28-11.891h-0.01V96.21c-21.55-16.94-35.39-43.27-35.39-72.82
					c0-51.15,41.45-92.61,92.56-92.61c21.33,0,41.83,8.13,57.88,20.69l6.69,5.73c12.12,11.33,20.87,25.32,24.239,39.87
					c1.83,7.73,3.82,27.91,3.82,27.91l19.351,48.71c0.369,0.88,0.56,1.869,0.56,2.909c0,4.11-3.37,7.46-7.49,7.46h-12.41v25.881
					c0,10.21-4.199,19.34-14.409,20.75c-8.811,1.22-36.61-0.051-36.61-4.03c0,0.01,0,15.91,0,29.439
					c-0.21,6.971-5.92,12.551-12.95,12.551H-4.45C-6.1,168.65-7.68,168.34-9.13,167.78z"/>
				<path fill="#44AC86" d="M104.32-42.8l-6.69-5.73C99.96-46.71,102.19-44.8,104.32-42.8z"/>
			</g>
			<g>
			</g>
		</g>
	</g>
</g>
<g id="Layer_1">
	<path fill="#FFFFFF" d="M41.141,148.356c3.571,1.908,6.518,3.131,8.781,3.695c2.24,0.546,4.611,0.78,7.219,0.78h73.221
		c5.312,0,9.296-1.197,11.838-3.6c2.572-2.396,3.816-4.952,3.816-7.827c0-2.862-1.261-5.507-3.852-8.115
		c-2.543-2.58-6.52-3.893-11.801-3.893h-47.5c-0.583,3.209-2.07,6.284-4.389,9.165c-2.768,3.39-6.022,5.098-9.688,5.098
		c-2.723,0-5.192-0.746-7.344-2.223l-31.486-19.009h8.499l25.297,15.316l0.159,0.12c1.453,1.12,2.911,1.688,4.473,1.688
		c1.4,0,2.692-0.403,3.872-1.18c1.278-0.862,2.404-1.964,3.468-3.378c1.047-1.407,1.86-2.901,2.509-4.623
		c0.598-1.63,0.896-3.152,0.896-4.479c0-2.566-1.14-4.718-3.462-6.523L23.223,81.049c-3.612-2.526-8.047-4.396-13.179-5.597
		c-5.169-1.205-9.961-1.821-14.215-1.821h-55.572v44.739h50.455c2.857,0,5.588,0.663,8.113,2.013
		c2.338,1.281,3.888,2.179,4.684,2.767c10.466,7.309,17.877,12.469,23.378,16.235C32.685,143.365,37.474,146.382,41.141,148.356z"/>
	<g id="Your_Icon_1_">
		<g>
			<path fill="#FFFFFF" d="M53.238,17.171c-1.546,8.015-0.283,15.953,3.721,23.54c3.75,7.053,7.5,14.75,9.482,22.934
				c0.701,2.927,1.047,5.976,1.4,9.146c0.085,0.873,0.189,1.722,0.282,2.562c0.644,5.325,4.057,8.426,9.37,8.426h16.957h3.15
				c5.208,0,8.716-3.252,9.182-8.465l0.059-0.56c0.382-4.492,0.766-8.746,2.02-12.879c2.188-7.051,5.217-14.148,9.286-21.688
				c5.188-9.623,5.574-20.933,1.001-30.995c-4.573-9.987-13.252-17.124-23.858-19.49c-2.561-0.6-5.21-0.879-7.817-0.879
				C70.77-11.177,56.357,0.729,53.238,17.171z M65.764,38.011c-3.618-6.574-4.777-12.904-3.589-19.321
				C64.381,6.776,75.305-2.165,87.612-2.165c3.433,0,6.763,0.72,9.886,2.094c6.799,2.964,11.851,8.295,14.234,15.076
				c2.451,6.854,1.86,14.31-1.598,21.043c-2.574,4.974-5.023,10.267-7.482,16.191c-2.862,6.908-4.33,12.875-4.612,18.772
				c-0.063,1.526-0.175,2.649-0.343,3.651l0,0c-0.039,0-0.076,0-0.112,0h-3.331H77.287c-0.02,0-0.037,0-0.072,0
				c-0.049-0.229-0.123-0.681-0.18-1.281c-0.027-0.085-0.027-0.154-0.027-0.241c0-0.245-0.02-0.518-0.058-0.754
				c-0.122-0.965-0.242-1.965-0.347-2.93c-0.244-2.331-0.497-4.733-1.074-7.097C73.657,54.542,70.449,46.601,65.764,38.011z"/>
			<path fill="#FFFFFF" d="M68.151,93.297c0,2.879,2.404,5.212,5.347,5.212h27.891c2.965,0,5.369-2.333,5.369-5.212
				c0-2.854-2.404-5.174-5.369-5.174H73.498C70.556,88.123,68.151,90.443,68.151,93.297z"/>
			<path fill="#FFFFFF" d="M73.08,108.006c0,2.93,2.039,5.222,4.646,5.222h19.471c2.6,0,4.629-2.297,4.629-5.222
				c0-2.884-2.027-5.169-4.629-5.169H77.727C75.119,102.837,73.08,105.127,73.08,108.006z"/>
			<path fill="#FFFFFF" d="M87.456-11.146c-2.629,0-5.257,0.282-7.837,0.879C69.014-7.851,60.325-0.752,55.777,9.263
				c-4.57,10.071-4.21,21.334,1.002,30.957c4.067,7.538,7.099,14.641,9.287,21.737c1.264,4.087,1.646,8.342,2.021,12.832
				l0.036,0.598c0.466,5.176,3.995,8.429,9.201,8.429h3.152h16.954c5.295,0,8.725-3.051,9.373-8.429
				c0.074-0.841,0.195-1.682,0.279-2.523c0.354-3.207,0.684-6.21,1.402-9.139c1.983-8.22,5.733-15.878,9.466-22.978
				c4.003-7.584,5.293-15.516,3.75-23.54C118.549,0.775,104.154-11.142,87.456-11.146z M99.375,62.399
				c-0.553,2.365-0.813,4.768-1.074,7.097c-0.1,0.961-0.195,1.962-0.326,2.93c-0.036,0.277-0.057,0.524-0.074,0.756
				c0,0.085,0,0.165,0,0.241c-0.084,0.646-0.143,1.05-0.206,1.329c-0.019,0-0.038,0-0.056,0H80.653v-0.085l-3.302,0.039
				c-0.046,0-0.084,0-0.122,0l0,0c-0.187-1.001-0.279-2.124-0.344-3.64c-0.3-5.9-1.769-11.828-4.614-18.771
				c-2.466-5.937-4.908-11.229-7.471-16.197c-3.468-6.743-4.057-14.198-1.625-21.052c2.402-6.743,7.451-12.112,14.231-15.076
				c3.144-1.363,6.472-2.047,9.905-2.047c12.307,0,23.24,8.938,25.418,20.809c1.209,6.415,0.02,12.758-3.591,19.33
				C104.473,46.639,101.267,54.615,99.375,62.399z"/>
			<path fill="#FFFFFF" d="M106.758,93.336c0,2.888-2.404,5.208-5.332,5.208H73.518c-2.944,0-5.35-2.32-5.35-5.208
				c0-2.854,2.402-5.171,5.35-5.171h27.908C104.354,88.165,106.758,90.482,106.758,93.336z"/>
			<path fill="#FFFFFF" d="M101.828,108.082c0,2.895-2.038,5.182-4.649,5.182H77.708c-2.589,0-4.628-2.287-4.628-5.182
				c0-2.921,2.039-5.206,4.628-5.206h19.471C99.79,102.876,101.828,105.161,101.828,108.082z"/>
			<path fill="#FFFFFF" d="M118.625-9.374c-2.059-2.085-2.244-5.134-0.402-6.977l13.776-13.758c1.843-1.841,4.892-1.684,6.959,0.366
				c2.049,2.085,2.225,5.133,0.384,6.976L125.562-9.008C123.722-7.165,120.672-7.334,118.625-9.374z"/>
			<path fill="#FFFFFF" d="M131.782,19.254c0-2.888,2.038-5.171,4.63-5.171h19.461c2.612,0,4.658,2.283,4.658,5.171
				c0,2.928-2.046,5.211-4.658,5.211h-19.459C133.822,24.465,131.782,22.182,131.782,19.254z"/>
			<path fill="#FFFFFF" d="M87.473-22.203c-2.916,0-5.189-2.049-5.189-4.659v-19.442c0-2.609,2.273-4.647,5.189-4.647
				c2.908,0,5.19,2.038,5.19,4.647v19.442C92.663-24.251,90.381-22.203,87.473-22.203z"/>
			<path fill="#FFFFFF" d="M56.307-9.461c2.066-2.045,2.225-5.087,0.402-6.938L42.932-30.185c-1.843-1.85-4.892-1.645-6.965,0.404
				c-2.063,2.039-2.225,5.125-0.398,6.968L49.341-9.055C51.184-7.211,54.252-7.37,56.307-9.461z"/>
			<path fill="#FFFFFF" d="M43.15,19.216c0-2.888-2.047-5.17-4.636-5.17H19.033c-2.61,0-4.64,2.282-4.64,5.17
				c0,2.932,2.029,5.211,4.64,5.211h19.481C41.104,24.427,43.15,22.146,43.15,19.216z"/>
		</g>
	</g>
</g>
</svg>
